<svg id="Layer_1" enable-background="new 0 0 512 512" height="512" viewBox="0 0 512 512" width="512" xmlns="http://www.w3.org/2000/svg"><g><path d="m159.6 224.933c-18.307 0-33.2-14.894-33.2-33.2 0-34.849-28.351-63.2-63.2-63.2s-63.2 28.352-63.2 63.2c0 34.895 28.238 63.2 63.2 63.2h96.4c8.284 0 15-6.716 15-15s-6.716-15-15-15zm-96.4 0c-18.292 0-33.2-14.804-33.2-33.2 0-18.307 14.894-33.2 33.2-33.2s33.2 14.894 33.2 33.2c0 12.168 3.458 23.546 9.441 33.2z" fill="#b95e1a"/><path d="m256 512c-8.284 0-15-6.716-15-15v-48.2c0-34.909 28.235-63.2 63.2-63.2h88.367c13.877 0 25.167-11.29 25.167-25.167s-11.29-25.167-25.167-25.167h-249.034c-52.567 0-95.333-42.767-95.333-95.333v-112.466c0-70.41 56.963-127.467 127.467-127.467h208.867c70.404 0 127.466 56.955 127.466 127.467 0 70.285-57.182 127.466-127.467 127.466h-224.933c-8.284 0-15-6.716-15-15s6.716-15 15-15h224.933c53.743 0 97.467-43.723 97.467-97.466 0-53.839-43.556-97.467-97.467-97.467h-208.866c-53.834 0-97.467 43.549-97.467 97.467v112.466c0 36.025 29.308 65.333 65.333 65.333h249.034c30.419 0 55.167 24.748 55.167 55.167s-24.748 55.167-55.167 55.167h-88.367c-18.345 0-33.2 14.837-33.2 33.2v48.2c0 8.284-6.716 15-15 15z" fill="#e48945"/><g fill="#b95e1a"><g><path d="m384.533 0h-113.533v30h113.533c53.911 0 97.467 43.628 97.467 97.467 0 53.743-43.724 97.466-97.467 97.466h-113.533v30h113.533c70.285 0 127.467-57.181 127.467-127.466 0-70.512-57.062-127.467-127.467-127.467z"/><path d="m392.567 385.6h-88.367c-12.19 0-23.557 3.447-33.2 9.406v53.794c0-18.363 14.855-33.2 33.2-33.2h88.367c30.419 0 55.167-24.748 55.167-55.167s-24.748-55.167-55.167-55.167h-121.567v30h121.567c13.877 0 25.167 11.29 25.167 25.167s-11.29 25.167-25.167 25.167z"/></g><path d="m63.2 158.533c18.306 0 33.2 14.894 33.2 33.2h30c0-34.849-28.351-63.2-63.2-63.2s-63.2 28.352-63.2 63.2h30c0-18.306 14.894-33.2 33.2-33.2z"/></g></g></svg>